<svg width="15" height="15" viewBox="0 0 15 15" fill="none" xmlns="http://www.w3.org/2000/svg">
<g clip-path="url(#clip0_6_79)">
<path d="M0.696987 0.0399867C0.605068 0.000398505 0.503384 -0.010694 0.405091 0.00814441C0.306799 0.0269828 0.216422 0.0748852 0.145653 0.145653C0.0748852 0.216422 0.0269828 0.306799 0.00814441 0.405091C-0.010694 0.503384 0.000398505 0.605068 0.0399867 0.696987L6.03999 14.697C6.07993 14.7902 6.14727 14.8691 6.23308 14.9231C6.31889 14.9772 6.41911 15.0039 6.52044 14.9996C6.62177 14.9954 6.71941 14.9605 6.80042 14.8994C6.88142 14.8384 6.94196 14.7542 6.97399 14.658L8.89499 8.89499L14.658 6.97499C14.7545 6.94315 14.8391 6.88264 14.9003 6.80153C14.9616 6.72041 14.9967 6.62255 15.001 6.52098C15.0052 6.41941 14.9784 6.31896 14.9241 6.23303C14.8698 6.14709 14.7905 6.07975 14.697 6.03999L0.696987 0.0399867Z" fill="#9EA0A3"/>
</g>
<defs>
<clipPath id="clip0_6_79">
<rect width="15" height="15" fill="white"/>
</clipPath>
</defs>
</svg>
