<svg width="24" height="24" viewBox="0 0 24 24" fill="none" xmlns="http://www.w3.org/2000/svg">
<path d="M11.9624 17.9857H18.7724C19.0376 18.0006 19.3021 17.9473 19.5409 17.8309C19.7796 17.7145 19.9846 17.5388 20.1362 17.3208C20.2878 17.1027 20.381 16.8494 20.4069 16.585C20.4329 16.3207 20.3907 16.0541 20.2844 15.8107C19.9244 14.7227 18.4894 13.4177 18.4894 12.1337C18.4894 9.28373 18.4894 8.53373 17.0854 6.85773C16.631 6.31826 16.0677 5.88102 15.4324 5.57473L14.6494 5.19473C14.518 5.11543 14.4047 5.00951 14.3166 4.88379C14.2286 4.75807 14.1679 4.61532 14.1384 4.46473C14.0601 3.95714 13.7917 3.49831 13.3876 3.18132C12.9835 2.86432 12.474 2.71289 11.9624 2.75773C11.46 2.72756 10.9644 2.88575 10.5724 3.20139C10.1804 3.51704 9.92009 3.96747 9.84237 4.46473C9.80712 4.62052 9.73807 4.76666 9.64009 4.89281C9.54211 5.01896 9.4176 5.12203 9.27537 5.19473L8.49237 5.57473C7.85741 5.88114 7.29443 6.31837 6.84037 6.85773C5.43737 8.53373 5.43737 9.28373 5.43737 12.1337C5.43737 13.4177 4.06737 14.5917 3.70737 15.7447C3.49037 16.4417 3.37037 17.9857 5.18737 17.9857H11.9624Z" stroke="black" stroke-width="1.5" stroke-linecap="round" stroke-linejoin="round"/>
<path d="M15.225 17.9854C15.2335 18.4162 15.155 18.8444 14.994 19.2441C14.8331 19.6439 14.5931 20.007 14.2883 20.3117C13.9836 20.6164 13.6205 20.8565 13.2207 21.0174C12.821 21.1784 12.3928 21.2569 11.962 21.2484C11.531 21.2575 11.1026 21.1793 10.7027 21.0186C10.3027 20.8578 9.93942 20.6178 9.63467 20.3129C9.32991 20.0081 9.08999 19.6447 8.92935 19.2447C8.76872 18.8447 8.69069 18.4163 8.69996 17.9854" stroke="black" stroke-width="1.5" stroke-linecap="round" stroke-linejoin="round"/>
</svg>
