<svg width="24" height="24" viewBox="0 0 24 24" fill="none" xmlns="http://www.w3.org/2000/svg">
<path d="M9.98042 15.5H10.9804V12.5H13.9804V11.5H10.9804V8.5H9.98042V11.5H6.98042V12.5H9.98042V15.5ZM5.09742 19C4.63742 19 4.25309 18.846 3.94442 18.538C3.63576 18.23 3.48176 17.8457 3.48242 17.385V6.615C3.48242 6.155 3.63642 5.771 3.94442 5.463C4.25242 5.155 4.63642 5.00067 5.09642 5H15.8664C16.3264 5 16.7104 5.15433 17.0184 5.463C17.3264 5.77167 17.4808 6.156 17.4814 6.616V11.269L20.5194 8.231V15.769L17.4814 12.731V17.385C17.4814 17.845 17.3271 18.2293 17.0184 18.538C16.7098 18.8467 16.3258 19.0007 15.8664 19H5.09742ZM5.09742 18H15.8674C16.0468 18 16.1941 17.9423 16.3094 17.827C16.4248 17.7117 16.4824 17.5643 16.4824 17.385V6.615C16.4824 6.43567 16.4248 6.28833 16.3094 6.173C16.1941 6.05767 16.0464 6 15.8664 6H5.09642C4.91709 6 4.76976 6.05767 4.65442 6.173C4.53909 6.28833 4.48142 6.436 4.48142 6.616V17.385C4.48142 17.5643 4.53909 17.7117 4.65442 17.827C4.76976 17.9423 4.91809 18 5.09742 18Z" fill="black"/>
</svg>
