<svg width="25" height="24" viewBox="0 0 25 24" fill="none" xmlns="http://www.w3.org/2000/svg">
<path d="M12.5156 21C10.2156 21 8.21162 20.2377 6.50362 18.713C4.79562 17.1883 3.81629 15.284 3.56562 13H5.61562C5.84896 14.7333 6.61996 16.1667 7.92863 17.3C9.23729 18.4333 10.7663 19 12.5156 19C14.4656 19 16.12 18.321 17.4786 16.963C18.8373 15.605 19.5163 13.9507 19.5156 12C19.515 10.0493 18.836 8.39533 17.4786 7.038C16.1213 5.68067 14.467 5.00133 12.5156 5C11.3656 5 10.2906 5.26667 9.29062 5.8C8.29062 6.33333 7.44896 7.06667 6.76562 8H9.51562V10H3.51562V4H5.51562V6.35C6.36563 5.28333 7.40329 4.45833 8.62862 3.875C9.85396 3.29167 11.1496 3 12.5156 3C13.7656 3 14.9366 3.23767 16.0286 3.713C17.1206 4.18833 18.0706 4.82967 18.8786 5.637C19.6866 6.44433 20.3283 7.39433 20.8036 8.487C21.279 9.57967 21.5163 10.7507 21.5156 12C21.515 13.2493 21.2776 14.4203 20.8036 15.513C20.3296 16.6057 19.688 17.5557 18.8786 18.363C18.0693 19.1703 17.1193 19.812 16.0286 20.288C14.938 20.764 13.767 21.0013 12.5156 21ZM15.3156 16.2L11.5156 12.4V7H13.5156V11.6L16.7156 14.8L15.3156 16.2Z" fill="black"/>
</svg>
