<svg width="24" height="24" viewBox="0 0 24 24" fill="none" xmlns="http://www.w3.org/2000/svg">
<path d="M4.616 20.9999C4.15533 20.9999 3.771 20.8459 3.463 20.5379C3.155 20.2299 3.00067 19.8456 3 19.3849V10.6149C3 10.1549 3.15433 9.77094 3.463 9.46294C3.77167 9.15494 4.15567 9.0006 4.615 8.99994H19.385C19.845 8.99994 20.229 9.15427 20.537 9.46294C20.845 9.7716 20.9993 10.1559 21 10.6159V19.3849C21 19.8449 20.8457 20.2293 20.537 20.5379C20.2283 20.8466 19.8443 21.0006 19.385 20.9999H4.616ZM4.616 19.9999H19.385C19.5383 19.9999 19.6793 19.9359 19.808 19.8079C19.9367 19.6799 20.0007 19.5386 20 19.3839V10.6159C20 10.4619 19.936 10.3206 19.808 10.1919C19.68 10.0633 19.539 9.99927 19.385 9.99994H4.615C4.46167 9.99994 4.32067 10.0639 4.192 10.1919C4.06333 10.3199 3.99933 10.4613 4 10.6159V19.3849C4 19.5383 4.064 19.6793 4.192 19.8079C4.32 19.9366 4.461 20.0006 4.615 19.9999M10.5 18.0769L15.116 14.9999L10.5 11.9229V18.0769ZM4.5 7.23094V6.23094H19.5V7.23094H4.5ZM7.5 4.46094V3.46094H16.5V4.46094H7.5Z" fill="black"/>
</svg>
