<svg width="24" height="24" viewBox="0 0 24 24" fill="none" xmlns="http://www.w3.org/2000/svg">
<path d="M12.8335 3.18616C13.6661 2.71199 14.6526 2.58659 15.5774 2.83733C16.5022 3.08808 17.2902 3.69459 17.7694 4.52441C18.2485 5.35424 18.3797 6.33993 18.1345 7.26622C17.8893 8.19251 17.2874 8.98412 16.4605 9.46816L15.7205 9.89416C16.5293 9.86617 17.3242 10.1096 17.9787 10.5856C18.6332 11.0616 19.1096 11.7429 19.3321 12.521C19.5546 13.2991 19.5105 14.1292 19.2066 14.8793C18.9028 15.6294 18.3568 16.2563 17.6555 16.6602L10.6355 20.7132C9.80271 21.1941 8.81297 21.3246 7.88401 21.0758C6.95505 20.827 6.16296 20.2194 5.68199 19.3867C5.20102 18.5539 5.07057 17.5641 5.31933 16.6352C5.5681 15.7062 6.17571 14.9141 7.00849 14.4332L7.74749 14.0052C6.93953 14.0316 6.14591 13.7873 5.49263 13.3112C4.83935 12.835 4.36386 12.1543 4.14166 11.3771C3.91946 10.5998 3.96328 9.7706 4.26617 9.02111C4.56906 8.27161 5.11366 7.64479 5.81349 7.24015L12.8335 3.18616Z" stroke="black" stroke-width="1.5" stroke-linejoin="round"/>
<path d="M13.992 11.0164L11.2 9.27138C10.46 8.80838 9.5 9.34139 9.5 10.2134V13.7034C9.5 14.5764 10.46 15.1084 11.2 14.6464L13.992 12.9004C14.152 12.8007 14.2839 12.6619 14.3754 12.4971C14.4669 12.3323 14.5149 12.1469 14.5149 11.9584C14.5149 11.7699 14.4669 11.5845 14.3754 11.4197C14.2839 11.2549 14.152 11.1161 13.992 11.0164Z" fill="black"/>
</svg>
