<svg width="25" height="24" viewBox="0 0 25 24" fill="none" xmlns="http://www.w3.org/2000/svg">
<path fill-rule="evenodd" clip-rule="evenodd" d="M2.76562 6C2.76562 5.80109 2.84464 5.61032 2.98529 5.46967C3.12595 5.32902 3.31671 5.25 3.51562 5.25H21.5156C21.7145 5.25 21.9053 5.32902 22.046 5.46967C22.1866 5.61032 22.2656 5.80109 22.2656 6C22.2656 6.19891 22.1866 6.38968 22.046 6.53033C21.9053 6.67098 21.7145 6.75 21.5156 6.75H3.51562C3.31671 6.75 3.12595 6.67098 2.98529 6.53033C2.84464 6.38968 2.76562 6.19891 2.76562 6ZM2.76562 10C2.76562 9.80109 2.84464 9.61032 2.98529 9.46967C3.12595 9.32902 3.31671 9.25 3.51562 9.25H21.5156C21.7145 9.25 21.9053 9.32902 22.046 9.46967C22.1866 9.61032 22.2656 9.80109 22.2656 10C22.2656 10.1989 22.1866 10.3897 22.046 10.5303C21.9053 10.671 21.7145 10.75 21.5156 10.75H3.51562C3.31671 10.75 3.12595 10.671 2.98529 10.5303C2.84464 10.3897 2.76562 10.1989 2.76562 10ZM2.76562 14C2.76562 13.8011 2.84464 13.6103 2.98529 13.4697C3.12595 13.329 3.31671 13.25 3.51562 13.25H11.5156C11.7145 13.25 11.9053 13.329 12.046 13.4697C12.1866 13.6103 12.2656 13.8011 12.2656 14C12.2656 14.1989 12.1866 14.3897 12.046 14.5303C11.9053 14.671 11.7145 14.75 11.5156 14.75H3.51562C3.31671 14.75 3.12595 14.671 2.98529 14.5303C2.84464 14.3897 2.76562 14.1989 2.76562 14ZM2.76562 18C2.76562 17.8011 2.84464 17.6103 2.98529 17.4697C3.12595 17.329 3.31671 17.25 3.51562 17.25H11.5156C11.7145 17.25 11.9053 17.329 12.046 17.4697C12.1866 17.6103 12.2656 17.8011 12.2656 18C12.2656 18.1989 12.1866 18.3897 12.046 18.5303C11.9053 18.671 11.7145 18.75 11.5156 18.75H3.51562C3.31671 18.75 3.12595 18.671 2.98529 18.5303C2.84464 18.3897 2.76562 18.1989 2.76562 18Z" fill="black"/>
<path d="M19.3906 14.1176C21.0446 15.0726 21.8706 15.5506 21.9926 16.2386C22.023 16.4109 22.023 16.5873 21.9926 16.7596C21.8716 17.4496 21.0446 17.9266 19.3906 18.8816C17.7366 19.8366 16.9106 20.3136 16.2526 20.0746C16.0883 20.0149 15.9357 19.9269 15.8016 19.8146C15.2656 19.3646 15.2656 18.4096 15.2656 16.4996C15.2656 14.5896 15.2656 13.6356 15.8016 13.1856C15.9356 13.0726 16.0886 12.9856 16.2526 12.9256C16.9096 12.6856 17.7366 13.1636 19.3906 14.1176Z" fill="black"/>
</svg>
