<svg width="24" height="24" viewBox="0 0 24 24" fill="none" xmlns="http://www.w3.org/2000/svg">
<path d="M3 10.2337L3.747 10.1697C3.72978 9.97763 3.63924 9.79956 3.49416 9.67249C3.34909 9.54542 3.16064 9.47912 2.96796 9.48736C2.77528 9.49559 2.59318 9.57774 2.45948 9.71673C2.32578 9.85572 2.25076 10.0409 2.25 10.2337H3ZM20.236 12.0567L19.53 16.1367L21.009 16.3927L21.714 12.3127L20.236 12.0567ZM13.245 21.2497H8.596V22.7497H13.245V21.2497ZM7.685 20.4127L6.873 11.0197L5.378 11.1487L6.191 20.5417L7.685 20.4127ZM19.53 16.1367C19.023 19.0667 16.381 21.2497 13.245 21.2497V22.7497C17.071 22.7497 20.371 20.0807 21.009 16.3927L19.53 16.1367ZM13.255 5.09972L12.592 9.14472L14.072 9.38672L14.735 5.34272L13.255 5.09972ZM7.188 10.2457L8.627 9.00572L7.647 7.86972L6.21 9.10972L7.188 10.2457ZM11.244 4.97172L11.72 3.13772L10.268 2.76172L9.792 4.59472L11.244 4.97172ZM12.438 2.77772L12.583 2.82472L13.042 1.39672L12.897 1.34972L12.438 2.77772ZM10.523 6.81572C10.8352 6.23163 11.0772 5.61266 11.244 4.97172L9.792 4.59472C9.65421 5.12101 9.45553 5.62944 9.2 6.10972L10.523 6.81572ZM12.583 2.82472C12.7255 2.86838 12.8547 2.94711 12.9588 3.05368C13.063 3.16026 13.1387 3.29128 13.179 3.43472L14.631 3.05872C14.5281 2.67002 14.3284 2.31373 14.0505 2.02309C13.7727 1.73246 13.4257 1.51697 13.042 1.39672L12.583 2.82472ZM11.72 3.13772C11.7402 3.06584 11.7757 2.99915 11.824 2.94221C11.8724 2.88526 11.9324 2.83939 12 2.80772L11.349 1.45672C10.817 1.71272 10.417 2.18672 10.268 2.76172L11.72 3.13772ZM12 2.80772C12.137 2.74275 12.2935 2.73203 12.438 2.77772L12.897 1.34972C12.3863 1.18645 11.8324 1.22473 11.349 1.45672L12 2.80772ZM14.154 10.9837H19.334V9.48372H14.154V10.9837ZM4.719 21.4057L3.747 10.1697L2.253 10.2987L3.223 21.5347L4.719 21.4057ZM3.75 21.5127V10.2337H2.25V21.5127H3.75ZM3.223 21.5347C3.21995 21.4984 3.22549 21.4618 3.23733 21.4273C3.24918 21.3928 3.26807 21.3612 3.2928 21.3344C3.31753 21.3076 3.34757 21.2862 3.381 21.2716C3.41443 21.2571 3.45053 21.2496 3.487 21.2497V22.7497C4.213 22.7497 4.781 22.1277 4.719 21.4057L3.223 21.5347ZM14.735 5.34272C14.8607 4.58251 14.8253 3.80436 14.631 3.05872L13.179 3.43572C13.3208 3.97891 13.3467 4.54587 13.255 5.09972L14.735 5.34272ZM8.596 21.2497C8.36701 21.2493 8.14648 21.1632 7.97785 21.0082C7.80923 20.8533 7.70475 20.6409 7.685 20.4127L6.191 20.5417C6.24303 21.1439 6.51888 21.7047 6.96411 22.1134C7.40933 22.5222 7.99159 22.7492 8.596 22.7497V21.2497ZM8.627 9.00572C9.307 8.41972 10.039 7.72272 10.524 6.81572L9.2 6.10972C8.854 6.75872 8.303 7.30572 7.647 7.86972L8.627 9.00572ZM21.714 12.3127C21.7742 11.9657 21.7578 11.6097 21.666 11.2697C21.5741 10.9297 21.4091 10.6139 21.1823 10.3444C20.9556 10.0749 20.6727 9.85819 20.3534 9.70952C20.0341 9.56085 19.6862 9.48378 19.334 9.48372V10.9837C19.901 10.9837 20.334 11.4957 20.236 12.0567L21.714 12.3127ZM3.487 21.2497C3.633 21.2497 3.75 21.3677 3.75 21.5127H2.25C2.25 22.1947 2.803 22.7497 3.487 22.7497V21.2497ZM12.592 9.14472C12.5547 9.3713 12.5672 9.60328 12.6285 9.82456C12.6899 10.0458 12.7986 10.2511 12.9472 10.4262C13.0958 10.6012 13.2807 10.7419 13.4891 10.8383C13.6975 10.9348 13.9244 10.9837 14.154 10.9837V9.48372C14.1418 9.48377 14.1297 9.48214 14.1187 9.477C14.1076 9.47186 14.0978 9.46434 14.09 9.45498C14.0821 9.44563 14.0765 9.43466 14.0734 9.42286C14.0703 9.41106 14.0698 9.39872 14.072 9.38672L12.592 9.14472ZM6.873 11.0197C6.8608 10.8749 6.88208 10.7293 6.937 10.5948C6.99193 10.4602 7.07794 10.3406 7.188 10.2457L6.208 9.10872C5.91814 9.35886 5.69177 9.6742 5.54748 10.0288C5.4032 10.3835 5.34511 10.7673 5.378 11.1487L6.873 11.0197Z" fill="black"/>
</svg>
