<svg width="25" height="25" viewBox="0 0 25 25" fill="none" xmlns="http://www.w3.org/2000/svg">
<path d="M12.2656 21.5C13.4475 21.5 14.6178 21.2672 15.7098 20.8149C16.8017 20.3626 17.7939 19.6997 18.6296 18.864C19.4653 18.0282 20.1282 17.0361 20.5805 15.9442C21.0328 14.8522 21.2656 13.6819 21.2656 12.5C21.2656 11.3181 21.0328 10.1478 20.5805 9.05585C20.1282 7.96392 19.4653 6.97177 18.6296 6.13604C17.7939 5.30031 16.8017 4.63738 15.7098 4.18508C14.6178 3.73279 13.4475 3.5 12.2656 3.5C9.87868 3.5 7.58949 4.44821 5.90166 6.13604C4.21384 7.82387 3.26563 10.1131 3.26563 12.5C3.26563 14.8869 4.21384 17.1761 5.90166 18.864C7.58949 20.5518 9.87868 21.5 12.2656 21.5ZM23.2656 12.5C23.2656 18.575 18.3406 23.5 12.2656 23.5C6.19063 23.5 1.26562 18.575 1.26562 12.5C1.26562 6.425 6.19063 1.5 12.2656 1.5C18.3406 1.5 23.2656 6.425 23.2656 12.5ZM15.2656 16.914L11.2656 12.914V6H13.2656V12.086L16.6796 15.5L15.2656 16.914Z" fill="black"/>
</svg>
